<?xml version="1.0" standalone="no"?>
<!DOCTYPE svg PUBLIC "-//W3C//DTD SVG 20010904//EN"
 "http://www.w3.org/TR/2001/REC-SVG-20010904/DTD/svg10.dtd">
<svg version="1.0" xmlns="http://www.w3.org/2000/svg"
 width="26.000000pt" height="430.000000pt" viewBox="0 0 26.000000 430.000000"
 preserveAspectRatio="xMidYMid meet">
<metadata>
Created by potrace 1.16, written by Peter Selinger 2001-2019
</metadata>
<g transform="translate(0.000000,430.000000) scale(0.100000,-0.100000)"
fill="#000000" stroke="none">
<path d="M0 2150 l0 -2150 130 0 130 0 0 2150 0 2150 -130 0 -130 0 0 -2150z
m87 -1008 c-1 -554 -2 -100 -2 1008 0 1108 1 1562 2 1007 2 -554 2 -1460 0
-2015z m73 1008 l0 -1960 -30 0 -30 0 0 1960 0 1960 30 0 30 0 0 -1960z m-90
0 l0 -1950 -30 0 -30 0 0 1950 0 1950 30 0 30 0 0 -1950z m180 0 l0 -1950 -35
0 -35 0 0 1950 0 1950 35 0 35 0 0 -1950z"/>
</g>
</svg>
